<svg width="200" height="200" style="clip-rule:evenodd;fill-rule:evenodd;image-rendering:optimizeQuality;shape-rendering:geometricPrecision;text-rendering:geometricPrecision" xml:space="preserve" xmlns="http://www.w3.org/2000/svg">
  <defs>
    <filter style="color-interpolation-filters:sRGB" id="b" x="0" y="-.035" width="1" height="1.07">
      <feGaussianBlur stdDeviation="0.001 6.552" result="blur"/>
    </filter>
    <filter style="color-interpolation-filters:sRGB" id="a" x="-.014" y="-.023" width="1.028" height="1.047">
      <feGaussianBlur stdDeviation="1 3" result="fbSourceGraphic"/>
      <feColorMatrix result="fbSourceGraphicAlpha" in="fbSourceGraphic" values="0 0 0 -1 0 0 0 0 -1 0 0 0 0 -1 0 0 0 0 1 0"/>
      <feGaussianBlur stdDeviation="3 3" result="fbSourceGraphic" in="fbSourceGraphic"/>
      <feColorMatrix result="fbSourceGraphicAlpha" in="fbSourceGraphic" values="0 0 0 -1 0 0 0 0 -1 0 0 0 0 -1 0 0 0 0 1 0"/>
      <feGaussianBlur stdDeviation="5" result="result3" in="fbSourceGraphic"/>
      <feColorMatrix values="1 0 0 0 0 0 1 0 0 0 0 0 1 0 0 0 0 0 50 0" result="result7"/>
      <feComposite operator="in" in2="fbSourceGraphic" result="result9"/>
      <feComposite in2="result7" operator="arithmetic" in="result9" k1=".5" k3=".5" result="result1"/>
      <feBlend in2="result1" result="result5" mode="screen" in="fbSourceGraphic"/>
      <feBlend in2="result5" mode="darken" in="result5" result="result6"/>
      <feComposite in2="fbSourceGraphic" operator="in" result="fbSourceGraphic"/>
      <feColorMatrix result="fbSourceGraphicAlpha" in="fbSourceGraphic" values="0 0 0 -1 0 0 0 0 -1 0 0 0 0 -1 0 0 0 0 1 0"/>
      <feGaussianBlur stdDeviation="1.012" result="blur" in="fbSourceGraphic"/>
      <feComponentTransfer in="blur" result="fbSourceGraphic">
        <feFuncR type="table" tableValues="0 1 0"/>
        <feFuncG type="table" tableValues="0 1 0"/>
        <feFuncB type="table" tableValues="0 1 0"/>
      </feComponentTransfer>
      <feColorMatrix result="fbSourceGraphicAlpha" in="fbSourceGraphic" values="0 0 0 -1 0 0 0 0 -1 0 0 0 0 -1 0 0 0 0 1 0"/>
      <feColorMatrix values="1 0 0 0 0 0 1 0 0 0 0 0 1 0 0 0 0 0 1 1" in="fbSourceGraphic"/>
      <feColorMatrix type="hueRotate" values="287" result="colormatrix2"/>
      <feColorMatrix in="colormatrix2" values="-1 0 0 0 1 0 -1 0 0 1 0 0 -1 0 1 0 0 0 1 0" result="colormatrix3"/>
      <feBlend in="colormatrix3" in2="colormatrix2" mode="darken" result="blend1"/>
      <feBlend in2="blend1" mode="screen" result="blend2"/>
      <feComposite in2="fbSourceGraphic" operator="in"/>
    </filter>
  </defs>
  <g style="display:inline;filter:url(#a)" transform="translate(-.53 3.637)scale(.09839)">
    <g style="clip-rule:evenodd;fill-rule:evenodd;image-rendering:optimizeQuality;shape-rendering:geometricPrecision;text-rendering:geometricPrecision">
      <path style="opacity:.917" fill="#030202" d="M1999.5 1469.5v10c-18.13-9.9-36.13-20.07-54-30.5-35.43-17.66-70.1-34.33-104-50 15.22 9.11 30.56 17.94 46 26.5 30.43 20.72 61.1 41.22 92 61.5 6.54 6.7 13.2 13.2 20 19.5v8c-7.46-6.96-14.8-14.13-22-21.5q-102.405-71.58-213-130.5c-.31-2.42.03-4.76 1-7 7.56 4.28 15.23 8.28 23 12 6.11 3.89 12.44 7.56 19 11 .33-.5.67-1 1-1.5-1.33-2.45-2.16-4.95-2.5-7.5 19.19 10.6 38.52 20.93 58 31a492 492 0 0 0 25-45c9-12.67 18-25.33 27-38 .67-2.67.67-5.33 0-8-4.74-20.83-9.57-41.5-14.5-62-.38-4.59-1.38-8.93-3-13 .24-2.4-.43-4.4-2-6-10.17-35.34-23-69.68-38.5-103-11-34.33-22-68.67-33-103l-30-76a2077 2077 0 0 0-41-76 7307 7307 0 0 0-64.5-49.5 350.6 350.6 0 0 0-53-22.5 5424 5424 0 0 1-100-24 1105 1105 0 0 0-37 25h-1c-.67-.333-1.33-.667-2-1q-1.395-2.608 0-5c7.67-5.167 15.33-10.333 23-15.5a339 339 0 0 0-29 4.5q1.32-5.916 6-9.5 20.76-3.741 40.5-7.5c37.11 9.236 74.28 18.403 111.5 27.5a713 713 0 0 1 46 21c22.1 16.47 43.94 33.304 65.5 50.5 13.33 24 26.67 48 40 72a6009 6009 0 0 0 32 81c11 34.33 22 68.67 33 103 5 10.67 10 21.33 15 32 8.47 25.07 17.14 50.07 26 75 7.5 30.5 13.83 61.16 19 92-9.75 14.51-19.75 28.84-30 43-7.17 13.67-14.33 27.33-21.5 41 23.67 12.29 47.67 24.13 72 35.5 17.87 10.43 35.87 20.6 54 30.5" transform="translate(-2.723 6.144)"/>
      <path style="opacity:1" fill="#2d325a" d="M1636.5 798.5c.11.617.44 1.117 1 1.5a650 650 0 0 1-123 4.5h-4c-4.05-1.231-7.72-2.898-11-5 12.17-8.585 24.5-16.918 37-25a5424 5424 0 0 0 100 24" transform="translate(-2.723 6.144)"/>
      <path style="opacity:.93" fill="#131423" d="M1496.5 798.5c-5.55.921-11.22 1.921-17 3a269 269 0 0 0 11-19 339 339 0 0 1 29-4.5c-7.67 5.167-15.33 10.333-23 15.5q-1.395 2.392 0 5" transform="translate(-2.723 6.144)"/>
      <path style="opacity:.959" fill="#050304" d="M1496.5 798.5c.67.333 1.33.667 2 1-.28 1.278-.95 2.278-2 3-3.82 19.63-7.49 39.297-11 59a6374 6374 0 0 0-46 245.5c.47 2.82 1.81 3.16 4 1 17.21-12.05 34.55-23.89 52-35.5 20.3-14.16 40.64-28.32 61-42.5 12.41-11.52 24.74-23.02 37-34.5 4.42-3.306 8.58-6.973 12.5-11 9.87-17.843 20.04-34.843 30.5-51-2.78 4.879-4.95 9.879-6.5 15a351 351 0 0 1 13.5-22q1.92 4.344 0 9a1959 1959 0 0 0-30.5 52c-15.83 14.5-31.67 29-47.5 43.5a10189 10189 0 0 1-245 166c-41.88 38.05-83.88 75.88-126 113.5 1.87 1.12 3.87 1.96 6 2.5-3.67.97-7.34 1.81-11 2.5q-6.825 3.825-15 4.5c-2.44.85-4.77 1.85-7 3 5.02.66 10.02.5 15-.5 1.53.14 2.53.81 3 2-1.58 11.68-3.25 23.35-5 35-1.4 4.09-2.06 8.42-2 13-2.48 23.4-5.48 46.74-9 70-.99 11.49-1.33 23.15-1 35-.42 4.99-.75 9.99-1 15-1.39 4.77-2.06 9.77-2 15-1.31 5.12-1.97 10.45-2 16q-4.2 23.715-7.5 48c-11.8 41.54-23.14 83.21-34 125l-19 19c-5.2 12.59-10.2 25.25-15 38-1.09-2.81-2.26-5.48-3.5-8 .91-6.75 2.91-13.42 6-20-1.67-1.59-3.67-2.25-6-2-5.03-1.61-10.2-1.94-15.5-1a335.5 335.5 0 0 0-12.5 42 18.9 18.9 0 0 0-2 8c-.8 1.54-1.13 3.21-1 5-.79 1.87-1.45 3.87-2 6-3.68.18-5.68-1.49-6-5 3.98-20.11 9.48-39.78 16.5-59q1.005-6 0-12a170 170 0 0 1-3-23c8.31-26.28 16.31-52.61 24-79 10.31-27.66 19.65-55.66 28-84a798 798 0 0 0 17.5-110c1.12-11.54 2.46-23.21 4-35-.33-.67-.67-1.33-1-2a664 664 0 0 0-40 47 79.6 79.6 0 0 0-15 18.5c7.08 20.3 15.08 40.14 24 59.5.35 4.98-.65 5.31-3 1a894 894 0 0 1-23.5-59c-.84-2.64-.34-4.97 1.5-7-1.61-.74-3.27-.91-5-.5 4.88-5.37 9.54-10.87 14-16.5 1.65-.98 2.98-2.31 4-4a41 41 0 0 1-7-13c0-.67-.33-1-1-1 .17-.99-.16-1.66-1-2-2.52-11.22-6.86-21.72-13-31.5l1.5-1.5c8.27 13.93 16.94 27.6 26 41 12.63-14.96 25.63-29.63 39-44 2.83-10.7 7.17-20.7 13-30 7.13-4.79 13.29-10.63 18.5-17.5 6.36-1.21 12.69-2.54 19-4 44.6-38.59 88.6-77.93 132-118 37.82-25 75.49-50.16 113-75.5 1.67-.25 3.17-.92 4.5-2 3.34-22.73 7.01-45.39 11-68q23.355-121.49 46.5-243c-4.77.026-9.43.693-14 2q.795-2.596 3-4a859 859 0 0 1 17-3" transform="translate(-2.723 6.144)"/>
      <path style="opacity:1" fill="#252742" d="M1496.5 802.5q6.18.295 12 2.5 7.35 10.857 13.5 22.5a1263 1263 0 0 1 48 106 1315 1315 0 0 0 23 43c.5 6.325.67 12.658.5 19a11680 11680 0 0 1-37 34.5c-20.36 14.18-40.7 28.34-61 42.5q2.01-12.03 4.5-24c9.39-31.16 18.55-62.322 27.5-93.5a220.2 220.2 0 0 0-11.5-54.5c-8.12-14.619-18.29-27.619-30.5-39 3.51-19.703 7.18-39.37 11-59" transform="translate(-2.723 6.144)"/>
      <path style="opacity:.988" fill="#131524" d="M1428.5 1116.5a89.6 89.6 0 0 1-8-16c3.98-20 6.48-40.34 7.5-61q9.165-44.49 18-89 1.41-36.302-1.5-72.5-3.3-9.588-12-15.5a186 186 0 0 1 5.5-18c13.79-12.284 26.62-25.284 38.5-39a51.7 51.7 0 0 1 14-2q-23.145 121.51-46.5 243a2394 2394 0 0 0-11 68c-1.33 1.08-2.83 1.75-4.5 2" transform="translate(-2.723 6.144)"/>
      <path style="opacity:1" fill="#131524" d="M1498.5 799.5h1c3.28 2.102 6.95 3.769 11 5 8.07 2.939 16.4 5.439 25 7.5 1.89.78 3.55.613 5-.5.99-.172 1.66.162 2 1q12.165 4.962 27 8c.92-.043 1.58-.376 2-1a182 182 0 0 1 18 5.5 1560 1560 0 0 1 45.5 48.5 547 547 0 0 1 8.5 53 351 351 0 0 0-13.5 22c1.55-5.121 3.72-10.121 6.5-15-10.46 16.157-20.63 33.157-30.5 51a106 106 0 0 1-12.5 11c.17-6.342 0-12.675-.5-19a1315 1315 0 0 1-23-43 1263 1263 0 0 0-48-106q-6.15-11.643-13.5-22.5a38.9 38.9 0 0 0-12-2.5c1.05-.722 1.72-1.722 2-3" transform="translate(-2.723 6.144)"/>
      <path style="opacity:1" fill="#0c0c17" d="M1510.5 804.5h4a370 370 0 0 0 26 7c-1.45 1.113-3.11 1.28-5 .5a229 229 0 0 1-25-7.5" transform="translate(-2.723 6.144)"/>
      <path style="opacity:1" fill="#0b0b16" d="M1542.5 812.5a918 918 0 0 1 29 7c-.42.624-1.08.957-2 1q-14.835-3.038-27-8" transform="translate(-2.723 6.144)"/>
      <path style="opacity:1" fill="#2e335b" d="M1764.5 1362.5q110.595 58.92 213 130.5c7.2 7.37 14.54 14.54 22 21.5v184a449 449 0 0 0-38 22.5c-27.11 25.62-54.28 51.12-81.5 76.5-22.19 27.04-44.86 53.7-68 80a574 574 0 0 1-38 59c-7.7 14.35-15.37 28.69-23 43-1.19 6.75-2.69 13.42-4.5 20h-817a3662 3662 0 0 1-18.5-82 2854 2854 0 0 1-11.5-74 3616 3616 0 0 1 28.5-170 1754 1754 0 0 0 20-80q-.284-30.15 3.5-60a1334 1334 0 0 1 157-28c1.87-3.75 3.71-7.41 5.5-11a65.4 65.4 0 0 1-13.5 5 667 667 0 0 1-24-59.5 79.6 79.6 0 0 1 15-18.5c4.65 4.31 9.31 8.64 14 13 3.3-5.1 6.97-9.94 11-14.5 2.3-.9 4.64-1.73 7-2.5 1.7-2.54 3.2-5.21 4.5-8 .46.59.63 1.26.5 2a798 798 0 0 1-17.5 110c-8.35 28.34-17.69 56.34-28 84-7.69 26.39-15.69 52.72-24 79 .47 7.69 1.47 15.36 3 23q1.005 6 0 12a395.6 395.6 0 0 0-16.5 59c.32 3.51 2.32 5.18 6 5v3q-1.23 7.035 6 7.5c2.14.63 4.14.3 6-1-2.46-2.16-1.79-2.99 2-2.5v-3c1.37.16 2.71-.01 4-.5-.92-.28-1.58-.78-2-1.5-.36-2.37.3-4.71 2-7 5.29-10.08 9.62-20.58 13-31.5.34-1.03 1-1.53 2-1.5 1.24 2.52 2.41 5.19 3.5 8 4.8-12.75 9.8-25.41 15-38l19-19c10.86-41.79 22.2-83.46 34-125q3.3-24.285 7.5-48c1.46-5.1 2.12-10.43 2-16 1.39-4.77 2.06-9.77 2-15 .25-5.01.58-10.01 1-15 38.99-8.83 78.32-15.66 118-20.5 16.04-3.46 32.04-7.13 48-11 18.38-.59 36.72-1.92 55-4 26.28-3.8 52.62-7.14 79-10 10-3.33 20-6.67 30-10a603 603 0 0 0-48 8c-22.51-.2-45.01-1.03-67.5-2.5a3742 3742 0 0 1-163.5 14.5c-5.29 1.22-10.62 2.22-16 3-11.33.5-22.66.67-34 .5v-3c3.52-23.26 6.52-46.6 9-70 5.45-3.23 11.12-6.23 17-9 1.11-1.22 1.28-2.56.5-4-4.55 3.46-9.72 4.79-15.5 4v-4c1.75-11.65 3.42-23.32 5-35 .6-3.25 1.93-6.25 4-9 3.66-.69 7.33-1.53 11-2.5-2.13-.54-4.13-1.38-6-2.5 42.12-37.62 84.12-75.45 126-113.5 82.49-54.16 164.15-109.49 245-166 15.83-14.5 31.67-29 47.5-43.5a1959 1959 0 0 1 30.5-52q2.835.305 4.5-2a692 692 0 0 1 14.5-67 8416 8416 0 0 1-1-35.5q-.03-6.852 1.5-13.5a642 642 0 0 1 69 47 638 638 0 0 1 23 36 2132 2132 0 0 1 35 80 69.3 69.3 0 0 1 2 14c.74 18.33 1.4 36.66 2 55a379 379 0 0 1 30 73c6.94 18.16 14.28 36.16 22 54 3.55 12.03 6.72 24.2 9.5 36.5a399 399 0 0 1-10.5 45.5c-7.88 18.09-17.04 35.43-27.5 52-7 3.83-14 7.67-21 11.5a110.4 110.4 0 0 1-16 12 3827 3827 0 0 1-108 45c-23 6.33-46 12.66-69 19 2.33.67 4.67.67 7 0 22.54-4.77 45.2-8.77 68-12 28.8-7.53 57.47-15.37 86-23.5" transform="translate(-2.723 6.144)"/>
      <path style="opacity:1" fill="#252742" d="M1636.5 798.5a350.6 350.6 0 0 1 53 22.5 7307 7307 0 0 1 64.5 49.5 2077 2077 0 0 1 41 76l30 76c11 34.33 22 68.67 33 103a708 708 0 0 1 38.5 103c-.24 2.4.43 4.4 2 6-.16 2.69 0 5.35.5 8 .1 2.15.93 3.82 2.5 5 1.17 9.15 2.83 18.32 5 27.5-2.77 9.64-5.93 19.14-9.5 28.5-6.57 4.37-13.74 7.2-21.5 8.5a1297 1297 0 0 1-60 32c-8.33 5.67-16.67 11.33-25 17-1.73 1.79-2.4 3.96-2 6.5-7.77-3.72-15.44-7.72-23-12-.97 2.24-1.31 4.58-1 7-28.53 8.13-57.2 15.97-86 23.5-22.8 3.23-45.46 7.23-68 12-2.33.67-4.67.67-7 0 23-6.34 46-12.67 69-19q54.345-21.675 108-45a110.4 110.4 0 0 0 16-12c7-3.83 14-7.67 21-11.5 10.46-16.57 19.62-33.91 27.5-52 4.39-14.97 7.89-30.13 10.5-45.5-2.78-12.3-5.95-24.47-9.5-36.5-7.72-17.84-15.06-35.84-22-54a379 379 0 0 0-30-73c-.6-18.34-1.26-36.67-2-55a69.3 69.3 0 0 0-2-14 2132 2132 0 0 0-35-80 638 638 0 0 0-23-36 642 642 0 0 0-69-47 58.8 58.8 0 0 0-1.5 13.5c.31 11.833.64 23.666 1 35.5a692 692 0 0 0-14.5 67q-1.665 2.305-4.5 2 1.92-4.656 0-9a547 547 0 0 0-8.5-53 1560 1560 0 0 0-45.5-48.5 182 182 0 0 0-18-5.5 918 918 0 0 0-29-7c-.34-.838-1.01-1.172-2-1a370 370 0 0 1-26-7q61.725 3.585 123-4.5c-.56-.383-.89-.883-1-1.5" transform="translate(-2.723 6.144)"/>
      <path style="opacity:1" fill="#2d325a" d="M1485.5 861.5c12.21 11.381 22.38 24.381 30.5 39a220.2 220.2 0 0 1 11.5 54.5 7412 7412 0 0 1-27.5 93.5q-2.49 11.97-4.5 24a2650 2650 0 0 0-52 35.5c-2.19 2.16-3.53 1.82-4-1a6374 6374 0 0 1 46-245.5" transform="translate(-2.723 6.144)"/>
      <path style="opacity:.967" fill="#252742" d="M1432.5 862.5q8.7 5.912 12 15.5a609 609 0 0 1 1.5 72.5q-8.835 44.51-18 89c-1.02 20.66-3.52 41-7.5 61a348 348 0 0 1-15.5-40 669 669 0 0 1-3.5-55q4.065-37.17 10.5-74a1641 1641 0 0 1 20.5-69" transform="translate(-2.723 6.144)"/>
      <path style="opacity:.887" fill="#030102" d="M934.5 1123.5a477 477 0 0 0-19 47 428 428 0 0 0-7.5 28 1240 1240 0 0 1-14 37l-9 9a341 341 0 0 1-9 23c1.134-5.73 2.468-11.4 4-17q-42.555 46.05-84 93c-2.601 8.3-5.101 16.64-7.5 25a815 815 0 0 1 16 35 81 81 0 0 0-5.5 5 23 23 0 0 1-2-5c-1.049-1.02-2.216-1.18-3.5-.5a3494 3494 0 0 0-113 79 536 536 0 0 0-21 17.5 1612 1612 0 0 0-50.5 41l-49 63a1528 1528 0 0 1-41.5 63q-2.712-.015-5 1.5c.333.33.667.67 1 1-1.26 1.11-2.427 1.28-3.5.5a507 507 0 0 0-14.5 17.5c.333.33.667.67 1 1a7.9 7.9 0 0 1-4 2c.799 1.75.132 3.08-2 4 1.154.91.987 1.75-.5 2.5-.333-.33-.667-.67-1-1-5.825 10.02-11.991 19.19-18.5 27.5.678 2.34.345 4.68-1 7 .116 1.27.449 2.6 1 4q-2.191 2.97-1 6c-1.232 3.39-2.066 3.22-2.5-.5-.717.54-1.217 1.21-1.5 2a825 825 0 0 0-18.5 28c-12.333 27.33-24.667 54.67-37 82a1858 1858 0 0 1-91.5 148h-11c34.047-48.92 65.547-99.59 94.5-152 12.333-27.33 24.667-54.67 37-82a1097 1097 0 0 1 64-92 4661 4661 0 0 0 50-77c16.667-21.33 33.333-42.67 50-64 23.833-19.17 47.667-38.33 71.5-57.5a5544 5544 0 0 1 116-81 460 460 0 0 1-12-26c2.833-9.17 5.667-18.33 8.5-27.5a3073 3073 0 0 1 98.5-110 397.6 397.6 0 0 0 22.5-69 424 424 0 0 1 18.5-40c2.301.82 4.635 1.49 7 2" transform="translate(-2.723 6.144)"/>
      <path style="opacity:.998" fill="#131524" d="M937.5 1124.5a377 377 0 0 0 57 7.5c.752.67 1.086 1.5 1 2.5a287.5 287.5 0 0 0-13 36c3.88 21.33 7.713 42.66 11.5 64 5.529 13.59 10.86 27.25 16 41 1.09 4.94 1.75 9.94 2 15a2942 2942 0 0 0 72.5 127c-4.46 5.63-9.12 11.13-14 16.5 1.73-.41 3.39-.24 5 .5-1.84 2.03-2.34 4.36-1.5 7a894 894 0 0 0 23.5 59c-20.7-.08-41.37.42-62 1.5-13.16-7.08-26.16-14.41-39-22-16.652-4.16-33.319-8.33-50-12.5q5.024-18.105 10-36v3q18.712 2.85 37 7.5c8.62 15.28 19.45 28.78 32.5 40.5 3.79-7.37 5.96-15.2 6.5-23.5-1.22-17.89-5.39-35.05-12.5-51.5a483 483 0 0 1-22.5-40c5.86-3.04 9.86-7.7 12-14 1.81-2.94 3.64-5.94 5.5-9q.9-4.77-1.5-9c-.31-3.45-1.15-6.78-2.5-10a18.3 18.3 0 0 0-3.5-2c-3.43-1.77-7.09-2.77-11-3q-8.15-2.43-17-3 8.635-2.715 18-1.5l15 3a25.5 25.5 0 0 1 6.5 5.5q.39-2.49-1.5-4.5a64.3 64.3 0 0 0-14-6 393 393 0 0 1-24.5-4.5q-4.84 2.085-8.5 6a2000 2000 0 0 0-28.5-81 235 235 0 0 1-14-23 661 661 0 0 0-6-39 30.5 30.5 0 0 1 0-11 446 446 0 0 0 15.5-37" transform="translate(-2.723 6.144)"/>
      <path style="opacity:.932" fill="#242742" d="M995.5 1134.5a582 582 0 0 1 14.5 94c.7 13 1.37 26 2 39 1.75 11.02 4.75 21.68 9 32 18.27 33.56 37.77 66.22 58.5 98-.17.99.16 1.66 1 2 .67 0 1 .33 1 1 1.55 4.76 3.88 9.09 7 13-1.02 1.69-2.35 3.02-4 4a2942 2942 0 0 1-72.5-127c-.25-5.06-.91-10.06-2-15a1535 1535 0 0 0-16-41c-3.787-21.34-7.62-42.67-11.5-64q5.36-18.6 13-36" transform="translate(-2.723 6.144)"/>
      <path style="opacity:1" fill="#131524" d="M915.5 1170.5q.05 33.03-.5 66a2224 2224 0 0 0 16 82 427 427 0 0 0 9.5 27 538 538 0 0 1-15.5 24 1644 1644 0 0 0-10.5 30 2517 2517 0 0 0-12.5-38 2097 2097 0 0 0-36.5-65.5c-5.989-1.84-11.989-2.67-18-2.5l-24.5 45a348 348 0 0 1-3.5 46.5c-.124 2.59.542 4.92 2 7a952 952 0 0 0 55 24 943 943 0 0 1 26.5 5.5 97 97 0 0 0 7.5-2 302 302 0 0 1-10 37c-.12-1.09-.787-1.75-2-2a174 174 0 0 1-17-6.5c-12-3.67-24-7.33-36-11a86.6 86.6 0 0 0-25-2.5 260 260 0 0 0-9.5-27 36.3 36.3 0 0 0-6.5-4 815 815 0 0 0-16-35c2.399-8.36 4.899-16.7 7.5-25q41.445-46.95 84-93a244 244 0 0 0-4 17 341 341 0 0 0 9-23l9-9a1240 1240 0 0 0 14-37 428 428 0 0 1 7.5-28" transform="translate(-2.723 6.144)"/>
      <path style="opacity:1" fill="#242742" d="M934.5 1123.5c1.291-.24 2.291.1 3 1a446 446 0 0 1-15.5 37 30.5 30.5 0 0 0 0 11 661 661 0 0 1 6 39 235 235 0 0 0 14 23 2000 2000 0 0 1 28.5 81 46.7 46.7 0 0 1-15 10.5 394 394 0 0 0-15 19.5 427 427 0 0 1-9.5-27 2224 2224 0 0 1-16-82q.55-32.97.5-66a477 477 0 0 1 19-47" transform="translate(-2.723 6.144)"/>
      <path style="opacity:1" fill="#151727" d="M1896.5 1228.5c1.57 1.6 2.24 3.6 2 6-1.57-1.6-2.24-3.6-2-6" transform="translate(-2.723 6.144)"/>
      <path style="opacity:1" fill="#17192a" d="M1898.5 1234.5c1.62 4.07 2.62 8.41 3 13-1.57-1.18-2.4-2.85-2.5-5-.5-2.65-.66-5.31-.5-8" transform="translate(-2.723 6.144)"/>
      <path style="opacity:1" fill="#131524" d="M1901.5 1247.5c4.93 20.5 9.76 41.17 14.5 62 .67 2.67.67 5.33 0 8-9 12.67-18 25.33-27 38a492 492 0 0 1-25 45c-19.48-10.07-38.81-20.4-58-31 .34 2.55 1.17 5.05 2.5 7.5-.33.5-.67 1-1 1.5-6.56-3.44-12.89-7.11-19-11-.4-2.54.27-4.71 2-6.5 8.33-5.67 16.67-11.33 25-17 20.25-10.13 40.25-20.79 60-32 7.76-1.3 14.93-4.13 21.5-8.5 3.57-9.36 6.73-18.86 9.5-28.5-2.17-9.18-3.83-18.35-5-27.5" transform="translate(-2.723 6.144)"/>
      <path style="opacity:1" fill="#252742" d="m914.5 1399.5-4 20a97 97 0 0 1-7.5 2 943 943 0 0 0-26.5-5.5 952 952 0 0 1-55-24c-1.458-2.08-2.124-4.41-2-7a348 348 0 0 0 3.5-46.5l24.5-45c6.011-.17 12.011.66 18 2.5a2097 2097 0 0 1 36.5 65.5 2517 2517 0 0 1 12.5 38" transform="translate(-2.723 6.144)"/>
      <path style="opacity:1" fill="#050304" d="M979.5 1317.5c-2.009 1.67-4.009 3.34-6 5l22 3a79 79 0 0 0-3 12c-.838-.34-1.172-1.01-1-2v-2q1.356-1.065 1-3c-6.35.02-12.683-.31-19-1-3.819-.05-7.486.62-11 2-2.216.7-4.049 2.04-5.5 4a724 724 0 0 0-25 38c-3 8.33-6 16.67-9 25a940 940 0 0 1-12 51 14335 14335 0 0 1-71 222 1467 1467 0 0 0-34 127 676 676 0 0 0-11 79l12.5 10.5c1.887.78 3.554.61 5-.5h6c-2.096 1.56-5.096 2.23-9 2a1567 1567 0 0 1 3 64v6h15c.208 2.42-.126 4.75-1 7a43 43 0 0 1-13 1c.256-2.29-.077-4.46-1-6.5a34.2 34.2 0 0 0-8-1.5c-.333-18.67-.833-37.34-1.5-56-.503-4.69-1.17-9.36-2-14-4.5-3.17-9-6.33-13.5-9.5q3.776-59.895 18.5-118.5a2706 2706 0 0 1 22-77 23703 23703 0 0 1 54-165 4527 4527 0 0 0 18.5-63 302 302 0 0 0 10-37l4-20q5.05-14.895 10.5-30a538 538 0 0 0 15.5-24q7.131-9.9 15-19.5a46.7 46.7 0 0 0 15-10.5q3.66-3.915 8.5-6a393 393 0 0 0 24.5 4.5c4.89 1.44 9.56 3.44 14 6q1.89 2.01 1.5 4.5a25.5 25.5 0 0 0-6.5-5.5l-15-3q-9.365-1.215-18 1.5" transform="translate(-2.723 6.144)"/>
      <path style="opacity:1" fill="#23253f" d="M979.5 1317.5q8.85.57 17 3c-4.542 1.33-4.875 3-1 5l-22-3c1.991-1.66 3.991-3.33 6-5" transform="translate(-2.723 6.144)"/>
      <path style="opacity:1" fill="#20223b" d="M1189.5 1315.5c-2.07 2.75-3.4 5.75-4 9-.47-1.19-1.47-1.86-3-2-4.98 1-9.98 1.16-15 .5 2.23-1.15 4.56-2.15 7-3q8.175-.675 15-4.5" transform="translate(-2.723 6.144)"/>
      <path style="opacity:1" fill="#262a47" d="M1191.5 1318.5c.06-.54.39-.88 1-1 5.4 1.73 8.23 5.4 8.5 11-2.67-3.83-5.83-7.17-9.5-10" transform="translate(-2.723 6.144)"/>
      <path style="opacity:1" fill="#2d325a" d="M996.5 1320.5c3.91.23 7.57 1.23 11 3q3.825 5.64 6 12 2.4 4.23 1.5 9c-1.86 3.06-3.69 6.06-5.5 9-3.17 3-6.5 5.83-10 8.5a93 93 0 0 1-11 1.5c.213-2.97 1.213-5.64 3-8-1.446-2.12-2.113-4.45-2-7a55 55 0 0 1 3-11q1.038-6.15 3-12c-3.875-2-3.542-3.67 1-5" transform="translate(-2.723 6.144)"/>
      <path style="opacity:1" fill="#232540" d="M1007.5 1323.5c1.22.53 2.39 1.19 3.5 2 1.35 3.22 2.19 6.55 2.5 10a50.3 50.3 0 0 0-6-12" transform="translate(-2.723 6.144)"/>
      <path style="opacity:1" fill="#1e203a" d="M1173.5 1330.5c2.45-.97 5.11-1.31 8-1 .28 1.91-.05 3.58-1 5v-4z" transform="translate(-2.723 6.144)"/>
      <path style="opacity:1" fill="#2d335b" d="M1171.5 1330.5h9v4c-.33 4-.67 8-1 12-.65.59-1.32 1.26-2 2-1.56-1.44-2.9-3.11-4-5l-1 1c-2.36 5.81-4.19 11.81-5.5 18a627 627 0 0 0-2 39c-2.39 9.48-3.56 19.15-3.5 29q-3.135 11.715-3 24c-1.45 19.21-3.28 38.54-5.5 58a509 509 0 0 0-9 52 1944 1944 0 0 1-37 126 91.2 91.2 0 0 0-15 17c-.55 3.16-1.05 6.32-1.5 9.5-.11 1.68-.77 2.85-2 3.5-3.08-1.68-6.42-2.35-10-2-.9-.66-1.9-1.32-3-2q3.345-6.855 9-12c1.41-8.3 2.58-16.63 3.5-25a2489 2489 0 0 1 22-73c8.28-28.52 15.95-57.18 23-86 8.68-52.4 15.01-105.07 19-158 1.26-5.78 2.93-11.45 5-17 3.09-3.26 5.59-6.92 7.5-11 3-.37 5.33-1.7 7-4" transform="translate(-2.723 6.144)"/>
      <path style="opacity:1" fill="#2d325a" d="M991.5 1333.5v2a111.6 111.6 0 0 1-6 17q-3.8-3.795-7.5 0a122 122 0 0 0-14 26 7130 7130 0 0 0-29 103q-36.781 94.395-53 195a2099 2099 0 0 0-16 49c-2.284 49.03-7.617 97.7-16 146q-6.425 6.6-12.5 13.5c-3.317.5-6.65.67-10 .5-2.306.49-4.639.83-7 1 2.05-5.08 4.05-10.25 6-15.5a143.4 143.4 0 0 1-3-34.5 660.7 660.7 0 0 1 20.5-135 1046 1046 0 0 0 15-53 18116 18116 0 0 0 66-204 1121 1121 0 0 1 16-64c4.024-14.99 11.691-27.66 23-38 1.709-2.92 3.542-5.75 5.5-8.5a119 119 0 0 1 17-2.5c2.14.06 3.806.72 5 2" transform="translate(-2.723 6.144)"/>
      <path style="opacity:1" fill="#131524" d="M1157.5 1333.5a59.3 59.3 0 0 1-6.5 14c-1.82 5.62-3.49 11.29-5 17-.85 18.37-2.19 36.7-4 55-4.48 33.73-9.48 67.4-15 101-16.5 55.64-33.16 111.31-50 167-.33 5-.67 10-1 15a30.4 30.4 0 0 1-5 8c-.5 2.31-.66 4.64-.5 7-.57-7.94-1.74-15.94-3.5-24-.67-3.33-.67-6.67 0-10a5715 5715 0 0 1 52-162c3.26-14.29 6.26-28.62 9-43 5.25-37.93 9.92-75.93 14-114 1.86-10.6 5.86-20.27 12-29a18.3 18.3 0 0 1 3.5-2" transform="translate(-2.723 6.144)"/>
      <path style="opacity:1" fill="#141526" d="M991.5 1335.5c-.172.99.162 1.66 1 2a55 55 0 0 0-3 11 23.3 23.3 0 0 1-3 6c-.333-.67-.667-1.33-1-2a111.6 111.6 0 0 0 6-17" transform="translate(-2.723 6.144)"/>
      <path style="opacity:1" fill="#080405" d="M985.5 1352.5c.333.67.667 1.33 1 2q-1.045 6.195-7.5 6a42.3 42.3 0 0 0-3.5 8c-.845 1.17-1.511 2.5-2 4a427 427 0 0 0-17 59 70105 70105 0 0 0-10 36 4472 4472 0 0 0-36.5 113 2212 2212 0 0 0-23 101c-4.667 15.33-9.333 30.67-14 46a2719 2719 0 0 1-16 146c-5 5.67-10 11.33-15 17a736 736 0 0 1-6.5 69c-2.357.16-4.69 0-7-.5.837-1.01 1.17-2.18 1-3.5 4.392-21.62 6.059-43.29 5-65-.342-.84-1.008-1.17-2-1-2.243-.63-3.909-1.97-5-4 3.35.17 6.683 0 10-.5q6.075-6.9 12.5-13.5c8.383-48.3 13.716-96.97 16-146a2099 2099 0 0 1 16-49q16.219-100.605 53-195a7130 7130 0 0 1 29-103 122 122 0 0 1 14-26q3.7-3.795 7.5 0" transform="translate(-2.723 6.144)"/>
      <path style="opacity:1" fill="#242742" d="M989.5 1348.5c-.113 2.55.554 4.88 2 7-1.787 2.36-2.787 5.03-3 8q5.532-.42 11-1.5c3.5-2.67 6.83-5.5 10-8.5-2.14 6.3-6.14 10.96-12 14 6.87 13.7 14.37 27.03 22.5 40 7.11 16.45 11.28 33.61 12.5 51.5-.54 8.3-2.71 16.13-6.5 23.5-13.05-11.72-23.88-25.22-32.5-40.5a386 386 0 0 0-37-7.5v-3a427 427 0 0 1 17-59c5.011.17 10.011 0 15-.5-4.744-.12-9.078-1.28-13-3.5a42.3 42.3 0 0 1 3.5-8q6.455.195 7.5-6a23.3 23.3 0 0 0 3-6" transform="translate(-2.723 6.144)"/>
      <path style="opacity:1" fill="#141625" d="M1172.5 1352.5a307 307 0 0 0-2.5 36c-.21 1.56-.71 2.89-1.5 4-.52-13.67.82-27 4-40" transform="translate(-2.723 6.144)"/>
      <path style="opacity:1" fill="#242641" d="M1180.5 1359.5v4c5.78.79 10.95-.54 15.5-4 .78 1.44.61 2.78-.5 4-5.88 2.77-11.55 5.77-17 9-.06-4.58.6-8.91 2-13" transform="translate(-2.723 6.144)"/>
      <path style="opacity:1" fill="#151727" d="M975.5 1368.5c3.922 2.22 8.256 3.38 13 3.5-4.989.5-9.989.67-15 .5.489-1.5 1.155-2.83 2-4" transform="translate(-2.723 6.144)"/>
      <path style="opacity:1" fill="#242742" d="M1179.5 1346.5v3c-2.03-.16-4.03 0-6 .5-.75.67-1.09 1.5-1 2.5-3.18 13-4.52 26.33-4 40a961 961 0 0 0-7 38c-.06-9.85 1.11-19.52 3.5-29 .26-13.02.93-26.02 2-39 1.31-6.19 3.14-12.19 5.5-18l1-1c1.1 1.89 2.44 3.56 4 5 .68-.74 1.35-1.41 2-2" transform="translate(-2.723 6.144)"/>
      <path style="opacity:1" fill="#242741" d="M1128.5 1411.5c.13-.74-.04-1.41-.5-2-1.3 2.79-2.8 5.46-4.5 8-2.36.77-4.7 1.6-7 2.5-4.03 4.56-7.7 9.4-11 14.5-4.69-4.36-9.35-8.69-14-13a664 664 0 0 1 40-47c.33.67.67 1.33 1 2-1.54 11.79-2.88 23.46-4 35" transform="translate(-2.723 6.144)"/>
      <path style="opacity:1" fill="#252742" d="M804.5 1403.5a36.3 36.3 0 0 1 6.5 4 260 260 0 0 1 9.5 27c8.461-.38 16.794.45 25 2.5 12 3.67 24 7.33 36 11a174 174 0 0 0 17 6.5c1.213.25 1.88.91 2 2a4527 4527 0 0 1-18.5 63 23703 23703 0 0 0-54 165 2706 2706 0 0 0-22 77q-14.724 58.605-18.5 118.5c4.5 3.17 9 6.33 13.5 9.5.83 4.64 1.497 9.31 2 14 .667 18.66 1.167 37.33 1.5 56q4.074.27 8 1.5c.923 2.04 1.256 4.21 1 6.5 4.384.33 8.717-.01 13-1a15.4 15.4 0 0 0 1-7h-15v-6a609 609 0 0 0 2.5-45c5.042-7.2 10.875-13.54 17.5-19 .992-.17 1.658.16 2 1-.996-.09-1.829.25-2.5 1a70.2 70.2 0 0 1-12 16 290 290 0 0 1-4.5 45c4.221-.34 8.054-1.68 11.5-4l1 8c.383-.56.883-.89 1.5-1 .17 1.32-.163 2.49-1 3.5 2.31.5 4.643.66 7 .5a736 736 0 0 0 6.5-69c5-5.67 10-11.33 15-17a2719 2719 0 0 0 16-146c4.667-15.33 9.333-30.67 14-46a2212 2212 0 0 1 23-101 4472 4472 0 0 1 36.5-113c16.681 4.17 33.348 8.34 50 12.5 12.84 7.59 25.84 14.92 39 22 20.63-1.08 41.3-1.58 62-1.5 2.35 4.31 3.35 3.98 3-1a65.4 65.4 0 0 0 13.5-5c-1.79 3.59-3.63 7.25-5.5 11a1334 1334 0 0 0-157 28 443 443 0 0 0-3.5 60 1754 1754 0 0 1-20 80 3616 3616 0 0 0-28.5 170 2854 2854 0 0 0 11.5 74 3662 3662 0 0 0 18.5 82h-340c.167-11.34 0-22.67-.5-34-1.88-20.63-3.214-41.3-4-62-6.515-40.28-6.848-80.61-1-121 1.623-11.78.29-23.11-4-34a1407 1407 0 0 1-7.5-47.5 3657 3657 0 0 1 5.5-91.5 85.6 85.6 0 0 1 6-17 1937 1937 0 0 0 36-47 2503 2503 0 0 0 39.5-46 536 536 0 0 1 21-17.5 3494 3494 0 0 1 113-79c1.284-.68 2.451-.52 3.5.5a23 23 0 0 0 2 5 81 81 0 0 1 5.5-5" transform="translate(-2.723 6.144)"/>
      <path style="opacity:1" fill="#252843" d="M1168.5 1477.5c-.33-11.85.01-23.51 1-35v3c11.34.17 22.67 0 34-.5 5.38-.78 10.71-1.78 16-3 54.61-3.64 109.11-8.47 163.5-14.5 22.49 1.47 44.99 2.3 67.5 2.5 15.95-3.32 31.95-5.99 48-8-10 3.33-20 6.67-30 10-26.38 2.86-52.72 6.2-79 10a679 679 0 0 1-55 4c-15.96 3.87-31.96 7.54-48 11-39.68 4.84-79.01 11.67-118 20.5" transform="translate(-2.723 6.144)"/>
      <path style="opacity:1" fill="#131524" d="M1887.5 1425.5c39.56 17.44 76.89 38.44 112 63v18c-6.8-6.3-13.46-12.8-20-19.5-30.9-20.28-61.57-40.78-92-61.5" transform="translate(-2.723 6.144)"/>
      <path style="opacity:1" fill="#22253e" d="M1999.5 1479.5v9c-35.11-24.56-72.44-45.56-112-63-15.44-8.56-30.78-17.39-46-26.5 33.9 15.67 68.57 32.34 104 50 17.87 10.43 35.87 20.6 54 30.5" transform="translate(-2.723 6.144)"/>
      <path style="opacity:1" fill="#222645" d="M1167.5 1492.5c.06 5.23-.61 10.23-2 15-.06-5.23.61-10.23 2-15" transform="translate(-2.723 6.144)"/>
      <path style="opacity:1" fill="#131524" d="M659.5 1499.5a2503 2503 0 0 1-39.5 46 1937 1937 0 0 1-36 47 85.6 85.6 0 0 0-6 17 3657 3657 0 0 0-5.5 91.5c2.229 15.87 4.729 31.71 7.5 47.5 4.29 10.89 5.623 22.22 4 34-5.848 40.39-5.515 80.72 1 121 .786 20.7 2.12 41.37 4 62 .5 11.33.667 22.66.5 34h-65a1013 1013 0 0 0-7.5-44 698 698 0 0 0 3.5 44h-6a859 859 0 0 1-11.5-52 8650 8650 0 0 0-12-92 847 847 0 0 1 3.5-144c.821-3.14 1.321-6.47 1.5-10q4.158-5.835 7.5-12a263 263 0 0 0 15-23 1528 1528 0 0 0 41.5-63l49-63a1612 1612 0 0 1 50.5-41" transform="translate(-2.723 6.144)"/>
      <path style="opacity:1" fill="#141625" d="M1168.5 1392.5c-1.73 15.72-3.9 31.38-6.5 47a847 847 0 0 1-14 132 6157 6157 0 0 0-33 121l-18 18c-1.21 2.43-2.38 4.76-3.5 7-.16-2.36 0-4.69.5-7 1.59-2.17 2.92-4.5 4-7 4.63-3.63 8.97-7.63 13-12 11.97-39.89 23.64-79.89 35-120q6.81-43.395 12-87c.5-9.99.67-19.99.5-30q-.135-12.285 3-24c2.08-12.71 4.41-25.38 7-38" transform="translate(-2.723 6.144)"/>
      <path style="opacity:1" fill="#202342" d="M1165.5 1507.5c.12 5.57-.54 10.9-2 16 .03-5.55.69-10.88 2-16" transform="translate(-2.723 6.144)"/>
      <path style="opacity:1" fill="#252743" d="M1158.5 1454.5c.17 10.01 0 20.01-.5 30q-5.19 43.605-12 87a8048 8048 0 0 1-35 120c-4.03 4.37-8.37 8.37-13 12-1.08 2.5-2.41 4.83-4 7-.5 2.31-.66 4.64-.5 7-.49 3.41-2.16 4.41-5 3 1.23-.65 1.89-1.82 2-3.5.45-3.18.95-6.34 1.5-9.5a91.2 91.2 0 0 1 15-17c13.75-41.57 26.08-83.57 37-126a509 509 0 0 1 9-52c2.22-19.46 4.05-38.79 5.5-58" transform="translate(-2.723 6.144)"/>
      <path style="opacity:1" fill="#242742" d="M991.5 1333.5c-1.194-1.28-2.86-1.94-5-2-5.732.42-11.398 1.26-17 2.5a113 113 0 0 0-5.5 8.5c-11.309 10.34-18.976 23.01-23 38a1121 1121 0 0 0-16 64 18116 18116 0 0 1-66 204 1046 1046 0 0 1-15 53 660.7 660.7 0 0 0-20.5 135q-.588 17.46 3 34.5c-1.95 5.25-3.95 10.42-6 15.5-.992-.17-1.658.16-2 1h-6c-1.248-.83-1.915-2.17-2-4l2-12q-4.306-80.94 17.5-159a4937 4937 0 0 1 60-184 1096 1096 0 0 1 28-88 904 904 0 0 1 16-62c7.279-17.09 16.779-32.76 28.5-47a28.8 28.8 0 0 1 11-2c6.317.69 12.65 1.02 19 1q.356 1.935-1 3" transform="translate(-2.723 6.144)"/>
      <path style="opacity:1" fill="#080404" d="M518.5 1666.5a263 263 0 0 1-15 23 63.8 63.8 0 0 0-11 15 121 121 0 0 0-11 15c-3.769 2.63-5.603 6.29-5.5 11-2.35 21.65-4.516 43.31-6.5 65 3.144 30.32 6.311 60.65 9.5 91a1939 1939 0 0 1 17.5 73 242 242 0 0 0 12 40h-8c-1.925-4.6-3.758-9.27-5.5-14q-11.812-52.56-24-105-4.084-43.5-8.5-87c1.557-15.67 3.223-31.34 5-47-.007-1.87-.34-3.54-1-5 .283-.79.783-1.46 1.5-2 .434 3.72 1.268 3.89 2.5.5q-1.191-3.03 1-6c-.551-1.4-.884-2.73-1-4 1.345-2.32 1.678-4.66 1-7 6.509-8.31 12.675-17.48 18.5-27.5.333.33.667.67 1 1 1.487-.75 1.654-1.59.5-2.5 2.132-.92 2.799-2.25 2-4a7.9 7.9 0 0 0 4-2c-.333-.33-.667-.67-1-1a507 507 0 0 1 14.5-17.5c1.073.78 2.24.61 3.5-.5-.333-.33-.667-.67-1-1q2.288-1.515 5-1.5" transform="translate(-2.723 6.144)"/>
      <path style="opacity:1" fill="#242742" d="M1171.5 1330.5c-1.67 2.3-4 3.63-7 4a41.4 41.4 0 0 1-7.5 11c-2.07 5.55-3.74 11.22-5 17-3.99 52.93-10.32 105.6-19 158-7.05 28.82-14.72 57.48-23 86a2489 2489 0 0 0-22 73c-.92 8.37-2.09 16.7-3.5 25a39.5 39.5 0 0 0-9 12c1.1.68 2.1 1.34 3 2-2.67-.33-5.33-.67-8-1-.16-2.36 0-4.69.5-7a30.4 30.4 0 0 0 5-8c.33-5 .67-10 1-15 16.84-55.69 33.5-111.36 50-167 5.52-33.6 10.52-67.27 15-101 1.81-18.3 3.15-36.63 4-55 1.51-5.71 3.18-11.38 5-17 2.76-4.35 4.93-9.02 6.5-14 4.19-2.7 8.86-3.7 14-3" transform="translate(-2.723 6.144)"/>
      <path style="opacity:1" fill="#1c1d32" d="M503.5 1689.5a116 116 0 0 1-7.5 12c-.179 3.53-.679 6.86-1.5 10 .164-2.69-.003-5.35-.5-8-.383.56-.883.89-1.5 1a63.8 63.8 0 0 1 11-15" transform="translate(-2.723 6.144)"/>
      <path style="opacity:1" fill="#242741" d="M1999.5 1698.5v6c-10.8 5.9-21.47 12.07-32 18.5-23.48 22.56-47.14 44.9-71 67-26.94 31.1-53.28 62.6-79 94.5 21.33-24.67 42.67-49.33 64-74a5942 5942 0 0 1-57.5 76 3604 3604 0 0 0-46 104 29.3 29.3 0 0 1-6.5 9h-6q-.03-6.09 1.5-12c7.18-14.36 14.35-28.69 21.5-43q6.75-11.505 12-24c-.17-.67-.33-1.33-.5-2-4.12 7.9-7.95 15.9-11.5 24-8.06 15.12-15.89 30.45-23.5 46-.41 3.79-1.24 7.45-2.5 11h-16c1.81-6.58 3.31-13.25 4.5-20 7.63-14.31 15.3-28.65 23-43a574 574 0 0 0 38-59c23.14-26.3 45.81-52.96 68-80 27.22-25.38 54.39-50.88 81.5-76.5a449 449 0 0 1 38-22.5" transform="translate(-2.723 6.144)"/>
      <path style="opacity:1" fill="#090810" d="M1999.5 1704.5v3c-10.28 5.81-20.61 11.64-31 17.5-24.7 23.7-49.7 47.03-75 70-4.62 4.78-8.62 9.94-12 15.5-21.33 24.67-42.67 49.33-64 74 25.72-31.9 52.06-63.4 79-94.5 23.86-22.1 47.52-44.44 71-67 10.53-6.43 21.2-12.6 32-18.5" transform="translate(-2.723 6.144)"/>
      <path style="opacity:1" fill="#2e335b" d="M1999.5 1707.5v292h-228c2.72-2.56 4.89-5.56 6.5-9a3604 3604 0 0 1 46-104c19.41-25.23 38.57-50.56 57.5-76 3.38-5.56 7.38-10.72 12-15.5 25.3-22.97 50.3-46.3 75-70 10.39-5.86 20.72-11.69 31-17.5" transform="translate(-2.723 6.144)"/>
      <path style="opacity:1" fill="#2b3056" d="M481.5 1719.5c.66 1.46.993 3.13 1 5a539.4 539.4 0 0 0-3.5 106 949 949 0 0 0 18.5 127c-.043.92-.376 1.58-1 2a1939 1939 0 0 0-17.5-73c-3.189-30.35-6.356-60.68-9.5-91 1.984-21.69 4.15-43.35 6.5-65-.103-4.71 1.731-8.37 5.5-11" transform="translate(-2.723 6.144)"/>
      <path style="opacity:1" fill="#141524" d="M1084.5 1723.5c-1.7-.16-3.37.01-5 .5-4.87 4.53-9.37 9.37-13.5 14.5q-3.225 10.41-6 21c-1.03 1.85-2.2 3.51-3.5 5a335.5 335.5 0 0 1 12.5-42c5.3-.94 10.47-.61 15.5 1" transform="translate(-2.723 6.144)"/>
      <path style="opacity:1" fill="#242641" d="M1084.5 1723.5c1.07 2.91 1.24 5.91.5 9a266 266 0 0 1-16 42c-.76 1.57-.6 2.9.5 4-1.7 2.29-2.36 4.63-2 7-2.4.37-4.74 1.03-7 2q-3.855-1.305-7.5-3c-.28.92-.78 1.58-1.5 2v-3c.55-2.13 1.21-4.13 2-6v5c4.43.69 8.26-.31 11.5-3 7.4-14.09 12.9-28.93 16.5-44.5.19-1.97-.48-3.47-2-4.5-3.27 1.77-6.1 4.1-8.5 7-2.97 7.88-5.64 15.88-8 24-2.87 3.8-5.71 7.47-8.5 11 .08-2.83.75-5.49 2-8 1.3-1.49 2.47-3.15 3.5-5q2.775-10.59 6-21c4.13-5.13 8.63-9.97 13.5-14.5 1.63-.49 3.3-.66 5-.5" transform="translate(-2.723 6.144)"/>
      <path style="opacity:1" fill="#2d325a" d="M1053.5 1777.5c-.13-1.79.2-3.46 1-5 2.79-3.53 5.63-7.2 8.5-11 2.36-8.12 5.03-16.12 8-24 2.4-2.9 5.23-5.23 8.5-7 1.52 1.03 2.19 2.53 2 4.5-3.6 15.57-9.1 30.41-16.5 44.5-3.24 2.69-7.07 3.69-11.5 3z" transform="translate(-2.723 6.144)"/>
      <path style="opacity:1" fill="#131524" d="M466.5 1741.5c.66 1.46.993 3.13 1 5a3388 3388 0 0 0-5 47q4.416 43.5 8.5 87 12.188 52.44 24 105c1.742 4.73 3.575 9.4 5.5 14h-22a3033 3033 0 0 0-23.5-72 1063 1063 0 0 0-7.5-38 862 862 0 0 0-26 23.5 474 474 0 0 0-17 4l-4.5 4.5a6159 6159 0 0 0-57.5 78h-23a1858 1858 0 0 0 91.5-148c12.333-27.33 24.667-54.67 37-82a825 825 0 0 1 18.5-28" transform="translate(-2.723 6.144)"/>
      <path style="opacity:1" fill="#161829" d="M1084.5 1723.5c2.33-.25 4.33.41 6 2-3.09 6.58-5.09 13.25-6 20-1-.03-1.66.47-2 1.5a186 186 0 0 1-13 31.5c-1.1-1.1-1.26-2.43-.5-4a266 266 0 0 0 16-42c.74-3.09.57-6.09-.5-9" transform="translate(-2.723 6.144)"/>
      <path style="opacity:1" fill="#131524" d="M962.5 1331.5c-11.721 14.24-21.221 29.91-28.5 47a904 904 0 0 0-16 62 1096 1096 0 0 0-28 88 4937 4937 0 0 0-60 184q-21.806 78.06-17.5 159l-2 12c.085 1.83.752 3.17 2 4-1.446 1.11-3.113 1.28-5 .5l-12.5-10.5a676 676 0 0 1 11-79 1467 1467 0 0 1 34-127 14335 14335 0 0 0 71-222 940 940 0 0 0 12-51c3-8.33 6-16.67 9-25a724 724 0 0 1 25-38c1.451-1.96 3.284-3.3 5.5-4" transform="translate(-2.723 6.144)"/>
      <path style="opacity:1" fill="#070406" d="M1067.5 1785.5c.42.72 1.08 1.22 2 1.5-1.29.49-2.63.66-4 .5v3c-3.79-.49-4.46.34-2 2.5-1.86 1.3-3.86 1.63-6 1q-7.23-.465-6-7.5c.72-.42 1.22-1.08 1.5-2q3.645 1.695 7.5 3c2.26-.97 4.6-1.63 7-2" transform="translate(-2.723 6.144)"/>
      <path style="opacity:1" fill="#242742" d="M494.5 1711.5a847 847 0 0 0-3.5 144c4.164 30.64 8.164 61.31 12 92a859 859 0 0 0 11.5 52h-6a242 242 0 0 1-12-40c.624-.42.957-1.08 1-2a949 949 0 0 1-18.5-127 539.4 539.4 0 0 1 3.5-106c-.007-1.87-.34-3.54-1-5a121 121 0 0 1 11-15c.617-.11 1.117-.44 1.5-1 .497 2.65.664 5.31.5 8" transform="translate(-2.723 6.144)"/>
      <path style="opacity:1" fill="#131524" d="M827.5 1885.5c1.091 2.03 2.757 3.37 5 4-6.625 5.46-12.458 11.8-17.5 19a609 609 0 0 1-2.5 45 1567 1567 0 0 0-3-64c3.904.23 6.904-.44 9-2 .342-.84 1.008-1.17 2-1 2.361-.17 4.694-.51 7-1" transform="translate(-2.723 6.144)"/>
      <path style="opacity:1" fill="#0e0d18" d="M1817.5 1884.5c-1.55 4.1-3.38 8.1-5.5 12 .47-4.61 2.3-8.61 5.5-12" transform="translate(-2.723 6.144)"/>
      <path style="opacity:1" fill="#252742" d="M478.5 1999.5h-136q28.387-39.15 57.5-78l4.5-4.5a474 474 0 0 1 17-4 862 862 0 0 1 26-23.5c2.731 12.62 5.231 25.29 7.5 38a3033 3033 0 0 1 23.5 72" transform="translate(-2.723 6.144)"/>
      <path style="opacity:1" fill="#2d3259" d="M834.5 1890.5c1.059 21.71-.608 43.38-5 65-.617.11-1.117.44-1.5 1l-1-8c-3.446 2.32-7.279 3.66-11.5 4a290 290 0 0 0 4.5-45 70.2 70.2 0 0 0 12-16c.671-.75 1.504-1.09 2.5-1" transform="translate(-2.723 6.144)"/>
      <path style="opacity:1" fill="#161624" d="M1788.5 1944.5v-2c3.55-8.1 7.38-16.1 11.5-24 .17.67.33 1.33.5 2q-5.25 12.495-12 24" transform="translate(-2.723 6.144)"/>
      <path style="opacity:1" fill="#0a0811" d="M1788.5 1942.5v2c-7.15 14.31-14.32 28.64-21.5 43a46.8 46.8 0 0 0-1.5 12h-3c1.26-3.55 2.09-7.21 2.5-11 7.61-15.55 15.44-30.88 23.5-46" transform="translate(-2.723 6.144)"/>
      <path style="opacity:1" fill="#050408" d="M524.5 1999.5h-4a698 698 0 0 1-3.5-44c2.825 14.62 5.325 29.29 7.5 44" transform="translate(-2.723 6.144)"/>
    </g>
    <path style="display:inline;opacity:.952909;fill:#b0b0b0;fill-opacity:1;stroke:none;stroke-width:3.77953;stroke-dasharray:none;stroke-opacity:1;filter:url(#b)" d="m1336.25 1790.378-150.18-64.86-136.423 80.358 15.277-162.87-118.582-104.916 159.62-35.8 63.137-145.199 83.374 140.745 157.602 15.178-108.093 122.785z" transform="matrix(1.14391 0 0 .73222 51.024 618.587)"/>
    <ellipse style="fill:#222543;fill-opacity:1;stroke:#474c8a;stroke-width:1.96535;stroke-dasharray:none;stroke-opacity:1" cx="1330.955" cy="1790.4" rx="74.656" ry="78.585"/>
    <ellipse style="clip-rule:evenodd;display:inline;opacity:.915;fill:#000;fill-opacity:1;fill-rule:evenodd;stroke:none;stroke-width:2.98303;stroke-dasharray:none;stroke-opacity:1;image-rendering:optimizeQuality;shape-rendering:geometricPrecision;text-rendering:geometricPrecision" cx="1352.829" cy="1772.571" rx="8.828" ry="19.571"/>
    <text xml:space="preserve" style="font-size:125.724px;fill:#222543;fill-opacity:1;stroke:#464d89;stroke-width:1.96535;stroke-dasharray:none;stroke-opacity:1" x="2055.31" y="1266.903" transform="scale(.68144 1.46749)"><tspan x="2055.31" y="1266.903" style="font-style:normal;font-variant:normal;font-weight:900;font-stretch:normal;font-size:125.724px;font-family:&quot;Blackoak Std&quot;;-inkscape-font-specification:&quot;Blackoak Std Heavy&quot;;fill:#222543;fill-opacity:1;stroke:#464d89;stroke-width:1.96535;stroke-dasharray:none;stroke-opacity:1">G</tspan></text>
    <ellipse style="opacity:.915;fill:#000;fill-opacity:1;stroke:none;stroke-width:2.98303;stroke-dasharray:none;stroke-opacity:1" cx="1298.828" cy="1774.571" rx="8.828" ry="19.571"/>
    <path style="opacity:1;fill:none;fill-opacity:1;stroke:#000;stroke-width:5.44622;stroke-dasharray:none;stroke-opacity:1" d="M1295.02 1815.868s30.168 28.633 64.976 0"/>
  </g>
</svg>
